<?xml version="1.0" encoding="UTF-8" standalone="no"?>
<!-- Filename: 00bf52b9bd40e08188e580fd671a612e16a4d3e74c326b1e8af61688b2573bc1.svg -->
<!-- Created with https://svgstud.io -->
<svg
  version="1.1"
  xmlns="http://www.w3.org/2000/svg"
  xmlns:xlink="http://www.w3.org/1999/xlink"
  xmlns:svg="http://www.w3.org/2000/svg"
  xmlns:rdf="http://www.w3.org/1999/02/22-rdf-syntax-ns#"
  xmlns:cc="http://creativecommons.org/ns#"
  xmlns:dc="http://purl.org/dc/elements/1.1/"
  viewBox="0 0 768 768"
  width="768"
  height="768"
  role="img"
  aria-labelledby="titleID descID"
>
  <title id="titleID">mountain outlines, glen in the middle</title>
  <desc id="descID">AI-generated SVG illustration: mountain outlines, glen in the middle, created on https://svgstud.io</desc>

  

  <metadata id="copyright">
    Created by https://svgstud.io and licensed under CC-BY-SA 4.0 license. Please attribute https://svgstud.io
  </metadata>
  <metadata id="prompt">
    mountain outlines, glen in the middle
  </metadata>
  <metadata id="version">
    7
  </metadata>
  <metadata>
    <rdf:RDF
      xmlns:rdf="http://www.w3.org/1999/02/22-rdf-syntax-ns#"
      xmlns:cc="http://creativecommons.org/ns#"
      xmlns:dc="http://purl.org/dc/elements/1.1/"
    >
      <cc:Work rdf:about="">
        <cc:license rdf:resource="http://creativecommons.org/licenses/by-sa/4.0/" />
        <dc:creator>
          <cc:Agent>
            <dc:title>https://svgstud.io</dc:title>
          </cc:Agent>
        </dc:creator>
      </cc:Work>
      <cc:License rdf:about="http://creativecommons.org/licenses/by-sa/4.0/">
        <cc:permits rdf:resource="http://creativecommons.org/ns#Reproduction" />
        <cc:permits rdf:resource="http://creativecommons.org/ns#Distribution" />
        <cc:requires rdf:resource="http://creativecommons.org/ns#Notice" />
        <cc:requires rdf:resource="http://creativecommons.org/ns#Attribution" />
        <cc:permits rdf:resource="http://creativecommons.org/ns#DerivativeWorks" />
        <cc:requires rdf:resource="http://creativecommons.org/ns#ShareAlike" />
      </cc:License>
    </rdf:RDF>
  </metadata>
  <metadata id="uid">00bf52b9bd40e08188e580fd671a612e16a4d3e74c326b1e8af61688b2573bc1</metadata>

  <path stroke="none" fill="#2a2a2a" fill-rule="evenodd" d="M491.50,667.87C479.95,667.82 465.55,667.16 459.50,666.40C453.45,665.64 443.55,664.32 437.50,663.45C431.45,662.59 422.34,660.94 417.25,659.77C412.16,658.61 408.00,657.36 408.00,656.98C408.00,656.60 412.39,655.99 417.75,655.62C423.11,655.25 430.31,654.46 433.75,653.87C437.19,653.28 440.00,652.39 440.00,651.90C440.00,651.40 439.32,651.00 438.50,651.00C437.68,651.00 437.00,650.61 437.00,650.13C437.00,649.65 438.69,648.98 440.75,648.63C442.81,648.28 453.50,647.75 464.50,647.45C475.50,647.15 486.52,646.65 489.00,646.33C492.50,645.88 493.06,645.58 491.50,644.98C489.92,644.37 489.81,644.10 491.00,643.68C491.82,643.39 495.09,642.85 498.25,642.50C501.41,642.15 504.00,641.47 504.00,641.00C504.00,640.52 503.21,639.90 502.25,639.61C501.29,639.33 495.32,638.13 489.00,636.95C482.68,635.77 477.07,634.40 476.55,633.90C475.97,633.35 476.56,632.99 478.05,632.97C480.24,632.94 480.31,632.83 478.70,631.89C477.70,631.31 470.95,629.78 463.70,628.48C456.44,627.18 445.55,625.44 439.50,624.61C433.45,623.78 423.63,622.58 417.68,621.95C411.74,621.31 405.66,620.45 404.18,620.04C401.59,619.31 401.65,619.24 405.75,618.14C408.09,617.51 411.80,616.53 414.00,615.96C416.20,615.39 418.00,614.52 418.00,614.03C418.00,613.54 417.21,612.91 416.25,612.63C415.29,612.35 410.90,611.62 406.50,611.01C402.10,610.41 394.68,609.23 390.00,608.41C385.32,607.58 368.23,603.61 352.00,599.58C335.77,595.55 317.67,591.08 311.77,589.65C305.86,588.22 298.89,585.95 296.27,584.61C293.65,583.26 290.62,581.50 289.54,580.69C287.88,579.45 287.78,578.97 288.89,577.64C289.61,576.77 297.69,572.18 306.85,567.45C316.01,562.71 325.07,558.20 327.00,557.43C330.50,556.02 330.50,556.02 327.97,558.26C326.58,559.49 324.79,561.34 323.99,562.38C322.61,564.17 322.75,564.22 326.92,563.51C330.83,562.85 331.23,562.96 330.64,564.51C330.13,565.84 330.38,566.12 331.74,565.71C332.71,565.42 337.41,563.55 342.18,561.56C348.65,558.87 352.93,557.79 358.93,557.33C363.76,556.95 367.00,557.08 367.00,557.65C367.00,558.16 364.86,560.22 362.25,562.21C359.64,564.21 356.41,567.00 355.08,568.42C353.74,569.84 352.86,571.00 353.11,571.00C353.36,571.00 356.17,570.08 359.36,568.97C362.54,567.85 368.72,566.43 373.08,565.81C377.45,565.19 381.33,564.99 381.70,565.37C382.08,565.74 380.05,568.41 377.19,571.31C374.34,574.20 372.00,576.94 372.00,577.39C372.00,577.84 373.18,577.92 374.61,577.56C376.05,577.20 381.37,574.90 386.44,572.45C391.51,570.00 395.96,568.00 396.33,568.00C396.70,568.00 397.00,568.62 397.00,569.38C397.00,570.14 396.32,571.32 395.50,572.00C394.68,572.68 394.00,573.59 394.00,574.02C394.00,574.44 396.74,573.94 400.09,572.90C403.44,571.85 407.31,571.00 408.69,571.00C411.21,571.00 411.21,571.00 408.10,574.53C406.40,576.48 405.00,578.55 405.00,579.14C405.00,579.77 405.72,579.92 406.75,579.49C407.71,579.10 410.88,577.91 413.80,576.86C416.71,575.81 421.21,574.68 423.80,574.34C428.50,573.74 428.50,573.74 425.25,577.17C423.46,579.05 422.00,580.80 422.00,581.05C422.00,581.30 427.51,581.52 434.25,581.55C440.99,581.58 447.32,582.06 448.32,582.63C449.91,583.53 449.25,584.30 443.07,588.81C439.18,591.65 436.00,594.48 436.00,595.10C436.00,595.85 437.24,596.00 439.75,595.56C441.81,595.19 446.72,593.57 450.65,591.96C454.58,590.35 460.41,588.35 463.61,587.51C466.80,586.68 470.54,586.00 471.92,586.00C474.30,586.00 474.21,586.21 470.02,590.48C467.60,592.94 465.95,595.28 466.34,595.67C466.73,596.06 471.02,595.40 475.88,594.19C480.74,592.99 486.16,592.00 487.93,592.00C491.15,592.00 491.15,592.00 488.97,594.75C486.80,597.50 486.80,597.50 488.88,597.82C490.03,597.99 493.78,597.23 497.23,596.13C500.68,595.03 504.96,593.89 506.75,593.59C508.54,593.29 510.00,593.44 510.00,593.92C510.00,594.40 509.30,595.06 508.44,595.39C507.58,595.72 507.12,596.38 507.41,596.86C507.71,597.34 509.74,598.02 511.92,598.37C514.10,598.72 516.16,599.45 516.50,599.99C516.83,600.54 515.06,602.22 512.55,603.73C510.05,605.25 508.00,606.89 508.00,607.39C508.00,607.90 510.92,608.01 514.75,607.63C518.46,607.27 526.25,606.69 532.06,606.35C537.87,606.00 544.81,606.04 547.48,606.44C550.41,606.88 551.84,607.48 551.09,607.95C550.28,608.45 550.97,608.94 553.04,609.36C554.81,609.71 558.33,610.00 560.88,610.01C563.42,610.01 568.20,610.47 571.50,611.03C575.13,611.64 584.54,611.78 595.36,611.37C605.18,611.00 612.60,610.36 611.86,609.95C611.11,609.54 604.20,607.54 596.50,605.51C588.80,603.48 581.04,601.20 579.25,600.46C577.46,599.71 576.00,598.70 576.00,598.21C576.00,597.72 590.06,597.01 607.25,596.64C624.44,596.26 643.77,595.67 650.22,595.33C656.66,594.98 661.73,594.37 661.48,593.96C661.23,593.56 659.55,592.95 657.76,592.62C655.97,592.29 648.20,591.33 640.50,590.48C632.80,589.64 623.04,588.02 618.82,586.88C614.59,585.75 610.31,584.20 609.32,583.44C607.75,582.25 610.02,582.06 625.59,582.03C635.54,582.01 649.20,581.70 655.94,581.34C663.91,580.91 667.63,580.37 666.60,579.79C665.72,579.31 661.74,578.28 657.75,577.52C653.76,576.76 639.48,574.56 626.00,572.63C612.52,570.69 597.00,568.62 591.50,568.02C586.00,567.42 571.60,566.50 559.50,565.98C547.40,565.46 528.95,564.12 518.50,563.01C508.05,561.89 490.24,560.11 478.91,559.05C467.59,557.98 456.18,556.57 453.55,555.91C450.49,555.14 449.26,554.44 450.14,553.97C450.89,553.57 455.44,552.69 460.26,552.01C465.07,551.34 469.24,550.42 469.52,549.97C469.80,549.51 469.24,548.90 468.26,548.61C467.29,548.31 460.65,546.90 453.51,545.46C446.36,544.03 440.33,542.66 440.09,542.43C439.86,542.19 441.74,542.00 444.28,542.00C446.82,542.00 451.29,541.50 454.20,540.89C457.12,540.28 459.93,539.38 460.45,538.89C461.05,538.33 461.03,537.63 460.40,537.00C459.85,536.45 455.71,535.27 451.20,534.36C446.69,533.46 443.00,532.39 443.00,531.99C443.00,531.59 446.63,530.94 451.06,530.56C455.49,530.17 461.96,530.16 465.43,530.53C469.65,530.98 471.98,530.84 472.44,530.10C472.81,529.50 474.17,529.00 475.46,529.00C477.09,529.00 478.45,530.09 479.91,532.58C481.08,534.55 482.55,535.98 483.19,535.77C483.83,535.56 485.11,533.16 486.05,530.44C486.99,527.72 488.91,522.91 490.32,519.75C491.73,516.59 493.32,514.00 493.85,514.00C494.37,514.00 495.67,515.47 496.73,517.26C497.79,519.06 499.46,522.64 500.44,525.22C501.43,527.79 502.97,530.55 503.87,531.33C504.77,532.12 506.51,533.07 507.75,533.45C509.85,534.09 510.00,533.84 510.00,529.65C510.00,526.10 511.26,522.76 516.08,513.58C519.43,507.21 522.32,502.00 522.51,502.00C522.70,502.00 524.19,505.49 525.82,509.75C527.45,514.01 529.10,519.86 529.49,522.75C529.89,525.74 530.70,528.00 531.37,528.00C532.03,528.00 534.23,524.62 536.27,520.50C538.31,516.38 540.37,513.00 540.85,513.00C541.32,513.00 543.52,516.94 545.74,521.75C547.96,526.56 550.08,531.51 550.45,532.75C550.83,533.99 551.97,535.45 552.99,536.00C554.64,536.88 555.43,535.79 559.98,526.25C565.11,515.51 565.11,515.51 568.47,521.80C570.32,525.26 572.37,528.74 573.02,529.53C573.88,530.56 574.72,530.69 576.04,529.98C577.05,529.44 579.81,529.01 582.18,529.02C584.56,529.02 590.77,529.96 596.00,531.10C601.23,532.23 608.88,533.57 613.00,534.07C617.12,534.57 626.35,535.45 633.50,536.02C640.65,536.60 651.35,538.24 657.28,539.67C663.21,541.10 668.35,541.99 668.70,541.63C669.05,541.28 668.29,539.87 667.00,538.50C665.14,536.52 664.98,536.00 666.25,536.00C667.13,536.00 671.38,537.31 675.68,538.90C679.98,540.50 686.42,542.92 690.00,544.28C693.58,545.64 698.08,547.06 700.00,547.42C703.50,548.09 703.50,548.09 700.50,545.45C697.50,542.80 697.50,542.80 705.24,543.39C709.49,543.71 714.89,544.22 717.24,544.52C720.93,545.00 721.25,544.90 719.61,543.79C718.57,543.08 716.66,541.54 715.35,540.38C714.05,539.21 709.66,537.07 705.60,535.63C701.55,534.19 688.17,530.08 675.86,526.48C663.56,522.89 639.77,516.10 623.00,511.40C606.23,506.69 587.67,501.47 581.77,499.80C575.87,498.12 570.25,496.13 569.27,495.36C567.71,494.14 568.28,493.99 574.00,494.14C577.58,494.24 580.67,493.91 580.87,493.42C581.07,492.92 579.27,491.53 576.85,490.33C574.44,489.12 564.82,485.90 555.48,483.16C546.14,480.42 529.05,475.44 517.50,472.08C502.57,467.73 490.43,464.96 475.50,462.49C463.95,460.58 450.90,458.22 446.50,457.26C440.20,455.87 433.93,455.51 417.00,455.54C404.53,455.57 392.14,456.12 387.50,456.87C383.10,457.57 375.93,459.05 371.57,460.14C367.21,461.24 362.26,462.88 360.57,463.79C357.50,465.46 357.50,465.46 361.50,465.99C365.42,466.52 365.46,466.56 363.12,467.87C361.82,468.60 357.60,470.27 353.75,471.58C349.91,472.89 344.45,474.22 341.63,474.54C336.50,475.12 336.50,475.12 339.94,472.08C341.83,470.41 343.18,468.84 342.93,468.60C342.69,468.36 338.44,469.01 333.50,470.06C328.55,471.10 313.93,474.83 301.00,478.35C288.07,481.87 269.85,487.07 260.50,489.92C251.15,492.76 233.82,498.66 222.00,503.02C210.18,507.39 192.34,513.85 182.36,517.38C172.39,520.90 155.06,526.52 143.86,529.85C132.66,533.19 115.10,537.97 104.83,540.47C94.56,542.98 81.73,546.62 76.33,548.57C70.92,550.52 63.47,553.50 59.78,555.19C56.08,556.89 53.28,558.64 53.56,559.10C53.84,559.55 57.09,559.68 60.78,559.40C64.48,559.11 70.65,558.40 74.50,557.82C78.35,557.24 84.88,555.75 89.00,554.51C93.12,553.26 99.20,551.72 102.50,551.08C105.80,550.43 111.20,549.46 114.50,548.92C117.80,548.37 129.72,545.50 141.00,542.54C152.28,539.58 165.19,536.42 169.70,535.52C174.22,534.62 179.95,534.02 182.44,534.19C186.97,534.50 186.97,534.50 183.57,536.82C181.70,538.10 174.62,541.63 167.84,544.66C161.05,547.70 151.67,551.47 147.00,553.04C142.32,554.62 131.75,557.74 123.50,559.98C115.25,562.22 100.85,566.04 91.50,568.45C82.15,570.87 71.35,573.15 67.50,573.52C63.65,573.88 55.45,573.71 49.27,573.12C43.09,572.54 35.44,571.41 32.27,570.61C29.10,569.81 23.91,568.64 20.75,568.01C15.00,566.86 15.00,566.86 15.00,559.06C15.00,552.69 15.38,550.79 17.07,548.63C18.21,547.18 21.25,544.80 23.82,543.33C26.40,541.86 29.31,539.98 30.29,539.14C31.98,537.70 31.84,537.40 27.88,533.77C24.65,530.82 23.94,529.66 24.85,528.75C25.50,528.10 27.93,526.86 30.26,525.98C33.90,524.61 34.47,524.01 34.31,521.69C34.19,519.88 34.89,518.43 36.48,517.25C38.84,515.50 38.84,515.50 36.26,513.42C34.68,512.14 33.97,510.86 34.44,510.10C34.85,509.43 36.28,508.47 37.60,507.96C38.92,507.46 40.00,506.30 40.00,505.38C40.00,504.47 39.21,503.11 38.25,502.36C36.60,501.08 36.62,500.90 38.63,499.25C39.80,498.29 41.60,496.98 42.63,496.35C44.21,495.39 44.30,494.91 43.24,493.35C42.55,492.33 41.70,490.89 41.35,490.14C40.95,489.31 41.92,487.83 43.85,486.32C45.98,484.65 47.00,482.99 47.00,481.18C47.00,479.70 47.86,476.25 48.90,473.50C49.94,470.75 51.18,468.56 51.65,468.64C52.12,468.71 53.26,470.74 54.18,473.14C55.11,475.54 56.84,480.07 58.03,483.21C59.22,486.35 60.82,489.44 61.59,490.07C62.35,490.71 63.99,490.95 65.24,490.62C66.48,490.29 68.13,489.61 68.90,489.11C70.06,488.35 69.93,487.73 68.16,485.47C66.01,482.75 66.01,482.75 69.01,479.34C70.65,477.46 72.00,475.71 72.00,475.45C72.00,475.19 71.50,474.17 70.88,473.18C70.00,471.77 70.22,470.50 71.88,467.23C73.05,464.95 74.00,462.55 74.00,461.89C74.00,461.24 74.97,458.05 76.15,454.80C77.34,451.56 78.64,449.26 79.04,449.70C79.45,450.14 80.80,453.65 82.05,457.50C83.30,461.35 84.70,464.93 85.16,465.45C85.62,465.97 86.00,467.39 86.00,468.59C86.00,469.79 86.79,471.73 87.75,472.89C89.32,474.78 90.04,474.91 94.81,474.14C97.73,473.67 100.66,472.74 101.31,472.07C102.23,471.14 101.88,470.41 99.75,468.85C98.06,467.61 97.00,465.90 97.00,464.42C97.00,463.09 97.34,462.00 97.75,462.00C98.16,461.99 100.03,461.06 101.90,459.92C105.31,457.84 105.31,457.84 102.65,455.38C101.19,454.03 100.00,452.30 100.00,451.54C100.00,450.78 101.38,449.86 103.07,449.49C104.75,449.11 106.38,448.17 106.68,447.39C106.98,446.61 106.69,445.33 106.03,444.54C105.37,443.74 105.13,442.17 105.48,441.05C105.84,439.92 106.53,439.00 107.01,439.00C107.49,439.00 109.08,435.08 110.54,430.28C113.10,421.89 113.25,421.66 114.56,424.03C115.31,425.39 116.68,428.75 117.61,431.50C118.53,434.25 120.57,439.24 122.14,442.60C123.71,445.95 125.00,449.58 125.00,450.66C125.00,451.73 125.66,453.49 126.47,454.56C127.28,455.63 127.95,457.22 127.97,458.10C127.99,458.97 128.82,460.43 129.83,461.35C130.83,462.26 132.80,463.00 134.21,463.00C135.61,463.00 137.33,462.31 138.03,461.46C139.11,460.16 138.79,459.38 136.04,456.55C134.25,454.69 133.08,452.68 133.45,452.09C133.82,451.49 136.10,450.50 138.53,449.89C140.95,449.28 143.42,448.20 144.01,447.49C144.83,446.50 144.08,445.64 140.79,443.84C137.35,441.94 136.44,440.86 136.20,438.36C135.91,435.46 136.16,435.20 139.70,434.57C141.79,434.20 144.29,433.66 145.25,433.38C146.21,433.10 147.00,432.40 147.00,431.83C147.00,431.27 145.61,429.51 143.92,427.93C142.17,426.29 140.99,424.28 141.18,423.28C141.37,422.27 142.60,421.35 144.01,421.15C145.38,420.96 147.06,420.35 147.75,419.78C148.44,419.22 149.00,417.91 149.00,416.88C149.00,415.84 148.32,415.00 147.50,415.00C146.59,415.00 146.00,414.07 146.00,412.62C146.00,411.31 146.90,409.63 148.01,408.87C149.22,408.04 150.62,405.12 151.54,401.50C152.38,398.20 153.79,393.59 154.67,391.25C155.55,388.91 156.61,387.00 157.02,387.00C157.44,387.00 159.24,390.71 161.04,395.25C162.84,399.79 165.41,404.99 166.75,406.81C168.92,409.75 169.06,410.45 167.97,413.06C167.01,415.39 167.02,416.32 168.00,417.50C168.69,418.33 169.81,419.00 170.50,419.00C171.19,419.00 172.34,419.70 173.05,420.57C174.11,421.84 174.12,422.78 173.08,425.67C171.83,429.10 171.90,429.32 175.48,432.98C178.03,435.59 179.32,437.94 179.68,440.65C180.18,444.37 179.89,444.88 173.60,451.36C169.97,455.10 167.00,458.54 167.00,459.01C167.00,459.47 168.40,460.95 170.11,462.29C173.22,464.73 173.22,464.73 168.86,467.13C166.13,468.63 164.38,470.34 164.19,471.70C163.98,473.15 164.74,474.44 166.44,475.55C167.99,476.57 171.01,477.23 174.09,477.23C176.88,477.23 179.66,476.74 180.25,476.15C181.03,475.37 180.79,474.87 179.42,474.38C178.36,474.00 176.93,473.24 176.22,472.70C175.21,471.91 175.29,471.34 176.61,469.88C177.96,468.38 178.04,467.75 177.03,466.53C176.34,465.70 176.04,464.34 176.36,463.51C176.68,462.68 177.75,462.00 178.75,462.00C179.74,462.00 181.62,461.25 182.92,460.34C185.28,458.69 185.28,458.69 181.67,456.84C179.69,455.82 177.56,454.05 176.95,452.91C176.34,451.76 176.03,450.63 176.27,450.39C176.51,450.16 179.76,450.67 183.49,451.53C187.22,452.40 191.67,452.97 193.39,452.80C196.50,452.50 196.50,452.50 193.00,450.63C191.07,449.61 188.30,447.65 186.83,446.27C184.20,443.81 184.18,443.73 185.83,440.41C187.36,437.34 187.89,437.05 192.06,437.02C194.57,437.01 197.42,436.41 198.41,435.69C200.04,434.50 199.83,434.27 196.15,433.16C193.92,432.49 190.72,430.79 189.05,429.38C187.37,427.98 186.00,426.24 186.00,425.54C186.00,424.83 187.41,423.97 189.12,423.62C190.84,423.28 193.74,423.00 195.56,423.00C197.38,423.00 200.02,422.56 201.43,422.02C203.02,421.42 204.00,420.28 204.00,419.02C204.00,417.60 203.33,416.99 201.75,416.97C200.51,416.96 198.09,415.72 196.36,414.22C194.25,412.39 193.05,410.28 192.68,407.75C192.15,404.16 192.25,404.00 194.99,404.00C196.56,404.00 200.13,403.47 202.92,402.83C205.72,402.18 208.74,400.84 209.64,399.85C210.97,398.37 211.02,397.96 209.89,397.60C209.12,397.36 206.79,396.87 204.71,396.52C202.62,396.18 199.51,394.64 197.80,393.11C195.99,391.49 194.98,389.84 195.40,389.16C195.79,388.52 197.20,388.00 198.51,388.00C199.83,388.00 202.05,387.48 203.45,386.84C204.85,386.20 206.00,385.28 206.00,384.79C206.00,384.30 204.77,382.84 203.26,381.55C200.52,379.19 200.52,379.19 206.26,376.65C209.42,375.25 212.00,373.86 212.00,373.56C212.00,373.26 209.98,372.06 207.50,370.89C204.01,369.26 203.00,368.24 203.00,366.39C203.00,364.70 203.56,364.00 204.92,364.00C205.98,364.00 208.23,362.83 209.92,361.41C211.62,359.99 213.00,358.19 213.00,357.41C213.00,356.63 212.55,356.00 212.00,356.00C211.45,356.00 211.00,354.86 211.00,353.46C211.00,352.06 211.84,349.25 212.86,347.21C213.89,345.17 215.52,341.06 216.50,338.08C218.11,333.17 218.40,332.83 219.61,334.48C220.34,335.48 222.13,339.49 223.58,343.40C225.04,347.30 227.29,352.75 228.58,355.50C229.87,358.25 231.93,361.73 233.14,363.23C235.22,365.79 235.25,366.06 233.68,367.80C232.75,368.82 232.00,370.10 232.00,370.63C232.00,371.17 233.57,373.13 235.50,375.00C237.43,376.87 239.00,379.06 239.00,379.87C239.00,380.68 238.22,382.21 237.26,383.26C235.59,385.11 235.69,385.32 239.79,388.84C244.05,392.50 244.05,392.50 241.45,396.32C240.01,398.42 239.07,400.73 239.35,401.47C239.63,402.20 241.44,403.32 243.38,403.96C245.53,404.67 247.16,405.98 247.57,407.31C247.93,408.52 249.38,410.44 250.77,411.58C253.32,413.66 253.32,413.66 249.66,416.58C247.65,418.19 246.00,419.84 246.00,420.25C246.00,420.66 247.28,421.00 248.85,421.00C250.42,421.00 253.23,420.47 255.10,419.82C256.97,419.18 260.64,416.82 263.25,414.57C265.86,412.33 268.00,410.16 268.00,409.75C268.00,409.34 264.51,408.99 260.25,408.98C255.99,408.98 251.87,408.57 251.10,408.08C249.95,407.35 250.18,406.38 252.39,402.60C254.43,399.11 255.68,398.00 257.54,398.00C258.89,398.00 260.00,397.56 260.00,397.01C260.00,396.47 258.16,394.86 255.91,393.44C252.06,391.01 251.91,390.75 253.45,389.05C254.36,388.06 256.76,386.96 258.80,386.62C260.83,386.28 263.12,385.60 263.88,385.11C264.64,384.62 264.94,383.72 264.56,383.10C264.18,382.48 262.21,381.11 260.18,380.05C258.16,379.00 255.19,376.89 253.58,375.37C250.67,372.61 250.67,372.61 258.08,371.00C262.16,370.12 266.54,368.83 267.81,368.13C269.08,367.43 269.95,366.33 269.73,365.68C269.52,365.03 267.90,364.27 266.13,364.00C263.63,363.61 262.39,362.55 260.46,359.15C259.11,356.75 258.00,354.64 258.00,354.46C258.00,354.27 260.14,353.84 262.75,353.50C265.36,353.16 268.51,352.47 269.75,351.96C270.99,351.46 272.00,350.63 272.00,350.12C272.00,349.61 270.39,348.25 268.43,347.09C266.19,345.77 264.98,344.36 265.18,343.31C265.36,342.40 266.77,341.31 268.31,340.89C269.86,340.48 271.79,339.59 272.60,338.92C273.85,337.88 273.61,337.32 270.91,335.06C267.75,332.43 267.75,332.43 271.38,329.66C273.96,327.69 275.00,326.12 275.00,324.20C275.01,322.71 276.32,318.12 277.93,314.00C279.54,309.88 281.22,306.56 281.68,306.62C282.13,306.69 284.17,310.87 286.22,315.90C288.27,320.94 291.16,326.66 292.66,328.62C294.95,331.62 295.18,332.48 294.16,334.11C293.29,335.50 293.25,336.60 294.01,338.01C294.59,339.09 296.40,340.67 298.03,341.52C299.66,342.36 301.00,343.81 301.00,344.74C301.00,345.67 299.76,347.45 298.25,348.71C295.50,350.99 295.50,350.99 298.31,353.49C299.85,354.87 302.32,356.01 303.81,356.02C305.29,356.02 307.12,356.42 307.88,356.91C309.00,357.61 308.73,358.49 306.48,361.44C304.94,363.45 302.86,365.54 301.84,366.08C300.83,366.63 300.00,367.68 300.00,368.43C300.00,369.18 300.71,370.06 301.58,370.39C302.45,370.73 304.93,371.00 307.08,371.00C310.32,371.00 311.00,371.34 311.00,372.99C311.00,374.19 309.44,376.01 307.00,377.62C304.80,379.07 303.00,380.67 303.00,381.16C303.00,381.66 303.69,382.33 304.54,382.65C305.39,382.98 308.35,382.06 311.13,380.62C313.91,379.18 316.60,378.25 317.09,378.56C317.59,378.87 318.00,381.23 318.00,383.81C318.00,388.50 318.00,388.50 323.85,390.37C328.48,391.85 330.14,392.00 331.85,391.08C333.03,390.45 334.00,389.57 334.00,389.13C334.00,388.68 332.88,387.81 331.50,387.18C330.02,386.51 329.00,385.21 329.00,384.00C329.00,382.79 330.02,381.49 331.50,380.82C332.88,380.19 334.00,379.15 334.00,378.49C334.00,377.84 333.10,376.50 332.00,375.50C330.90,374.50 330.00,373.31 330.00,372.85C330.00,372.38 332.14,371.98 334.75,371.96C337.36,371.95 340.62,371.30 342.00,370.54C344.37,369.22 344.40,369.11 342.50,368.49C341.40,368.13 339.46,367.42 338.18,366.91C336.77,366.34 335.99,365.31 336.18,364.29C336.36,363.35 338.19,361.71 340.25,360.62C342.31,359.54 344.00,358.10 344.00,357.43C344.00,356.76 342.77,355.91 341.26,355.53C339.75,355.15 337.95,354.38 337.27,353.81C336.31,353.02 336.72,352.05 339.02,349.64C340.66,347.91 343.06,345.38 344.34,344.00C346.63,341.55 346.64,341.44 344.90,338.58C343.16,335.72 343.17,335.56 345.49,331.58C346.80,329.33 348.83,324.92 350.00,321.77C351.17,318.62 352.55,315.78 353.07,315.46C353.58,315.14 354.48,316.14 355.06,317.69C355.65,319.24 357.71,323.80 359.64,327.84C362.30,333.37 363.18,336.53 363.21,340.62C363.26,345.40 363.60,346.29 366.07,348.05C367.61,349.15 369.58,351.46 370.44,353.18C371.30,354.90 372.00,356.45 372.00,356.63C372.00,356.80 370.65,357.65 369.00,358.50C367.35,359.35 366.00,360.65 366.00,361.39C366.00,362.13 367.70,363.91 369.77,365.34C371.85,366.78 375.00,368.25 376.77,368.60C378.55,368.96 380.00,369.56 380.00,369.93C380.00,370.30 378.42,372.13 376.50,374.00C374.57,375.87 373.00,378.00 373.00,378.75C373.00,379.49 374.63,380.78 376.62,381.61C378.61,382.44 380.86,382.89 381.62,382.59C382.38,382.30 383.00,381.13 383.00,379.98C383.00,378.84 383.66,376.61 384.48,375.04C385.29,373.47 386.92,368.66 388.09,364.34C389.27,360.03 390.47,356.09 390.77,355.59C391.07,355.09 392.64,357.34 394.27,360.59C395.89,363.84 398.15,367.51 399.28,368.75C400.42,369.99 401.99,371.00 402.78,371.00C403.75,371.00 403.98,370.44 403.50,369.25C403.10,368.29 402.72,366.82 402.64,366.00C402.53,364.87 403.44,364.56 406.35,364.73C408.47,364.86 411.07,364.50 412.13,363.93C413.19,363.36 413.79,362.47 413.47,361.95C413.15,361.43 412.04,361.00 411.02,361.00C409.99,361.00 407.77,359.83 406.08,358.41C404.38,356.99 403.00,355.19 403.00,354.41C403.00,353.62 404.00,352.98 405.25,352.96C406.49,352.95 408.52,352.36 409.77,351.67C412.04,350.41 412.04,350.41 409.02,347.52C407.36,345.93 406.00,344.04 406.00,343.31C406.00,342.59 407.02,342.00 408.28,342.00C409.53,342.00 411.57,341.29 412.81,340.42C415.07,338.84 415.07,338.84 411.94,335.27C408.81,331.71 408.81,331.71 412.53,330.43C414.58,329.73 416.71,328.69 417.26,328.14C417.95,327.45 417.62,326.09 416.26,323.93C414.23,320.74 414.23,320.74 416.51,317.39C417.76,315.55 420.03,310.55 421.55,306.27C423.08,302.00 424.62,298.16 424.98,297.74C425.33,297.32 427.54,301.19 429.87,306.33C432.40,311.90 434.28,317.68 434.52,320.59C434.84,324.57 435.48,325.95 437.97,327.99C439.65,329.37 441.01,331.36 441.01,332.42C441.00,333.48 440.24,335.18 439.32,336.20C437.73,337.96 437.85,338.28 441.82,342.32C444.12,344.66 446.00,347.32 446.00,348.23C446.00,349.14 444.99,350.59 443.76,351.45C441.89,352.77 441.72,353.30 442.75,354.76C443.42,355.72 444.65,358.02 445.49,359.87C446.32,361.73 447.00,364.24 447.00,365.47C447.00,366.69 447.90,368.50 449.00,369.50C450.10,370.50 451.00,372.30 451.00,373.50C451.00,374.70 450.08,376.52 448.95,377.54C447.56,378.81 447.00,380.37 447.20,382.45C447.49,385.40 447.66,385.49 452.14,385.34C454.69,385.26 457.73,384.68 458.89,384.06C460.05,383.44 461.00,382.61 460.99,382.21C460.99,381.82 459.64,380.73 457.99,379.80C456.35,378.86 455.02,377.73 455.04,377.30C455.06,376.86 456.52,375.59 458.28,374.49C460.04,373.38 461.61,371.77 461.78,370.91C461.95,370.03 460.98,368.85 459.54,368.20C458.14,367.56 457.00,366.31 457.00,365.42C457.00,364.53 458.35,362.54 460.00,361.00C461.93,359.20 463.02,357.18 463.05,355.35C463.08,353.78 464.09,349.43 465.30,345.67C466.51,341.91 467.87,338.76 468.32,338.67C468.77,338.58 470.68,342.55 472.55,347.50C474.43,352.45 475.97,356.91 475.98,357.41C475.99,357.90 477.13,359.79 478.50,361.59C480.58,364.32 480.83,365.31 480.00,367.50C479.45,368.95 479.00,370.78 479.00,371.58C479.00,372.38 480.56,373.77 482.46,374.68C484.36,375.59 486.17,376.99 486.47,377.79C486.78,378.60 485.89,381.22 484.49,383.60C481.95,387.95 481.95,387.95 484.22,388.44C485.48,388.70 487.40,389.06 488.50,389.22C489.63,389.39 490.63,390.42 490.80,391.60C490.96,392.74 490.40,394.25 489.55,394.96C488.70,395.67 488.00,396.57 488.00,396.98C488.00,397.38 489.13,398.92 490.50,400.41C492.26,402.31 493.00,404.23 493.00,406.94C493.00,409.05 493.65,412.02 494.43,413.54C495.22,415.06 496.45,416.66 497.16,417.10C497.91,417.56 498.46,419.87 498.47,422.62C498.50,426.92 498.78,427.47 501.50,428.63C503.15,429.33 505.46,429.93 506.63,429.95C507.80,429.98 509.27,429.38 509.90,428.63C510.79,427.55 510.48,426.89 508.46,425.56C506.78,424.46 505.99,423.15 506.19,421.79C506.46,419.95 507.22,419.70 512.91,419.61C516.79,419.54 519.48,419.04 519.72,418.34C519.93,417.71 518.50,416.66 516.54,416.01C514.59,415.37 512.54,414.01 511.99,412.99C511.45,411.97 511.00,409.98 511.00,408.57C511.00,406.48 511.48,406.00 513.57,406.00C514.98,406.00 517.00,405.53 518.07,404.96C519.13,404.40 520.00,403.15 520.00,402.21C520.00,401.26 519.07,399.90 517.94,399.19C516.66,398.40 515.99,397.08 516.19,395.76C516.40,394.29 517.54,393.35 519.80,392.77C521.61,392.30 523.35,391.25 523.67,390.42C523.98,389.60 523.51,388.12 522.62,387.13C521.73,386.15 521.00,384.84 521.00,384.22C521.00,383.61 522.12,381.89 523.50,380.41C524.88,378.92 526.00,377.06 526.00,376.27C526.00,375.47 527.43,370.58 529.19,365.40C530.94,360.22 532.70,356.32 533.10,356.74C533.50,357.16 535.50,361.55 537.54,366.50C539.58,371.45 541.46,377.39 541.72,379.71C541.98,382.02 542.79,384.41 543.52,385.02C544.38,385.73 544.66,387.32 544.31,389.50C543.80,392.63 544.04,393.00 547.63,394.71C550.37,396.02 551.44,397.13 551.31,398.53C551.20,399.61 550.80,401.80 550.41,403.39C549.85,405.72 550.16,406.61 552.06,408.05C554.15,409.62 554.27,410.11 553.20,412.46C552.32,414.39 552.28,415.66 553.06,417.12C553.74,418.38 554.94,419.01 556.32,418.81C558.05,418.56 558.97,417.06 560.77,411.50C562.02,407.65 563.53,403.38 564.12,402.00C565.19,399.50 565.19,399.50 567.05,403.00C568.08,404.93 568.94,407.18 568.96,408.00C568.99,408.82 569.71,410.84 570.56,412.47C571.41,414.10 571.85,416.47 571.53,417.74C571.13,419.32 571.46,420.24 572.56,420.66C573.51,421.03 575.02,420.43 576.25,419.19C577.98,417.46 578.12,416.85 577.06,415.57C576.01,414.30 576.15,413.32 577.89,409.99C579.05,407.76 580.00,405.39 580.00,404.72C579.99,404.05 581.20,400.18 582.67,396.13C584.79,390.31 585.58,389.07 586.43,390.24C587.02,391.05 588.32,394.36 589.33,397.60C590.33,400.85 591.80,404.77 592.58,406.33C593.36,407.89 594.00,410.67 594.00,412.50C594.00,414.61 594.92,416.95 596.50,418.82C598.12,420.74 599.00,423.02 599.00,425.27C599.00,427.19 599.63,429.28 600.40,429.92C601.17,430.56 602.11,432.30 602.48,433.78C602.85,435.27 603.69,436.82 604.33,437.22C604.97,437.63 606.85,437.97 608.50,437.97C610.15,437.97 612.51,437.70 613.75,437.37C614.99,437.04 616.00,436.26 615.99,435.63C615.98,435.01 614.18,433.75 611.99,432.82C609.27,431.68 608.00,430.53 608.00,429.20C608.00,427.97 609.11,426.78 611.00,426.00C612.78,425.26 614.00,424.02 614.00,422.94C614.00,421.93 613.00,420.41 611.78,419.56C610.56,418.70 609.85,418.00 610.21,418.00C610.57,418.00 612.06,418.45 613.52,419.01C614.98,419.56 616.61,419.74 617.16,419.40C617.71,419.06 617.23,418.15 616.07,417.34C614.93,416.54 614.00,415.22 614.00,414.40C614.00,413.58 615.19,411.88 616.63,410.64C618.95,408.64 619.12,408.10 618.05,406.09C617.01,404.14 617.13,403.49 618.91,401.59C620.06,400.37 621.00,398.28 621.00,396.94C621.00,395.60 621.85,392.27 622.89,389.54C623.92,386.81 625.27,384.41 625.89,384.20C626.50,384.00 627.00,384.34 627.00,384.96C627.00,385.58 628.35,388.97 630.00,392.50C631.65,396.03 633.00,400.01 633.00,401.34C633.00,402.67 633.70,404.33 634.54,405.04C635.61,405.92 635.89,407.21 635.46,409.20C635.04,411.07 635.38,412.93 636.41,414.51C637.29,415.84 638.00,417.82 638.00,418.91C638.00,420.00 638.89,421.51 639.98,422.27C641.67,423.46 641.82,424.15 640.98,427.07C640.44,428.95 640.00,431.10 640.00,431.85C640.00,432.63 640.62,432.98 641.44,432.66C642.38,432.30 643.74,433.58 645.37,436.36C647.32,439.70 647.74,441.50 647.32,444.68C646.97,447.23 647.20,449.01 647.93,449.46C648.57,449.85 649.77,449.60 650.61,448.91C651.45,448.21 652.97,446.04 653.99,444.07C655.26,441.61 655.99,440.97 656.34,442.00C656.62,442.82 657.39,445.30 658.06,447.50C658.73,449.70 660.14,453.23 661.21,455.35C662.29,457.50 663.24,461.65 663.35,464.76C663.54,469.52 663.22,470.65 661.13,472.58C658.91,474.64 658.80,475.11 659.94,477.86C660.63,479.52 660.90,481.36 660.54,481.94C660.18,482.52 659.26,483.00 658.50,483.00C657.74,483.00 656.85,483.43 656.53,483.95C656.21,484.47 656.88,485.40 658.02,486.01C659.63,486.87 661.11,486.74 664.54,485.43C666.98,484.50 669.46,483.15 670.05,482.44C670.86,481.46 670.61,480.86 669.06,480.03C667.93,479.43 667.00,478.54 667.00,478.06C667.00,477.59 668.46,476.68 670.25,476.04C673.21,474.99 673.35,474.78 671.75,473.59C670.79,472.87 670.00,471.12 670.00,469.70C670.00,468.28 670.50,466.81 671.10,466.44C671.74,466.04 671.95,464.50 671.60,462.75C671.12,460.34 671.51,459.25 673.56,457.35C675.31,455.73 675.93,454.36 675.51,453.04C675.16,451.94 676.32,447.22 678.20,442.07C680.01,437.10 681.80,433.02 682.16,433.02C682.52,433.01 684.04,436.49 685.53,440.75C687.03,445.01 688.61,450.75 689.06,453.50C689.50,456.25 690.19,459.85 690.59,461.50C690.99,463.15 692.22,465.72 693.32,467.21C694.42,468.70 695.70,469.68 696.17,469.39C696.65,469.10 697.69,467.28 698.50,465.34C699.31,463.41 700.51,462.00 701.16,462.22C701.82,462.44 703.39,465.68 704.65,469.42C705.91,473.17 707.41,476.79 707.98,477.47C708.54,478.15 708.73,480.09 708.39,481.78C707.91,484.18 708.38,485.64 710.58,488.51C712.88,491.53 713.16,492.48 712.18,493.84C711.52,494.75 710.71,496.07 710.38,496.76C710.05,497.46 710.33,498.69 711.01,499.51C711.69,500.33 713.08,501.00 714.10,501.00C715.25,501.00 716.68,499.56 717.84,497.25C718.87,495.19 720.02,492.15 720.40,490.50C720.78,488.85 721.77,485.08 722.61,482.12C723.45,479.16 724.50,477.13 724.95,477.62C725.39,478.10 726.31,480.30 726.99,482.50C727.67,484.70 728.88,487.55 729.69,488.84C730.50,490.13 731.41,493.73 731.71,496.84C732.02,499.95 732.93,503.27 733.75,504.21C734.73,505.33 735.01,506.84 734.56,508.60C734.04,510.69 734.47,511.88 736.53,514.03C739.08,516.69 739.11,516.88 737.57,519.86C736.03,522.84 736.06,522.99 738.43,524.55C739.80,525.44 741.02,527.33 741.19,528.82C741.41,530.67 742.42,531.89 744.50,532.79C746.15,533.51 748.17,534.47 749.00,534.91C750.24,535.57 750.55,539.01 750.77,554.37C751.04,572.95 751.04,573.03 748.77,573.92C747.52,574.41 741.24,575.50 734.82,576.34C728.39,577.18 721.90,578.51 720.38,579.31C717.92,580.60 717.83,580.80 719.57,581.29C720.63,581.59 723.65,582.12 726.27,582.48C729.10,582.87 732.15,584.08 733.77,585.49C736.50,587.85 736.50,587.85 734.00,588.80C732.62,589.32 729.24,590.06 726.48,590.44C723.10,590.90 720.42,592.04 718.26,593.91C715.71,596.15 713.74,596.83 708.41,597.33C704.41,597.70 701.31,598.53 700.63,599.40C700.01,600.20 697.48,601.36 695.00,601.98C692.52,602.60 689.04,603.57 687.25,604.13C685.46,604.70 684.00,605.54 684.00,606.00C684.00,606.46 685.63,607.38 687.62,608.04C689.60,608.69 692.10,610.10 693.15,611.15C695.05,613.05 695.02,613.09 691.29,614.69C688.37,615.93 682.39,616.45 665.26,616.94C650.50,617.36 642.64,617.96 641.86,618.74C640.98,619.62 641.70,620.30 644.85,621.56C647.13,622.47 649.00,623.56 649.00,623.99C649.00,624.41 647.99,625.43 646.75,626.26C644.58,627.71 644.56,627.83 646.29,629.75C648.04,631.70 647.96,631.77 641.79,633.29C638.33,634.14 632.35,635.12 628.50,635.46C624.65,635.80 618.69,636.56 615.25,637.15C611.81,637.74 609.00,638.60 609.00,639.05C609.00,639.50 609.97,640.17 611.16,640.55C613.25,641.22 613.26,641.28 611.41,642.37C610.12,643.13 599.30,643.56 577.97,643.69C557.67,643.82 545.39,644.28 543.50,645.00C540.57,646.11 540.57,646.11 544.46,648.31C546.59,649.51 548.52,651.02 548.73,651.66C548.93,652.30 547.84,653.06 546.30,653.36C544.76,653.66 536.02,654.20 526.87,654.57C517.73,654.93 509.64,655.61 508.90,656.06C507.86,656.71 508.00,657.05 509.53,657.59C510.61,657.97 515.03,659.62 519.34,661.25C524.28,663.12 526.83,664.57 526.24,665.16C525.72,665.68 522.41,666.53 518.89,667.04C515.38,667.54 503.05,667.92 491.50,667.87zM167.00,660.42C161.22,660.66 151.86,660.44 146.19,659.94C140.52,659.44 134.45,658.65 132.69,658.20C130.94,657.74 129.50,656.73 129.50,655.94C129.50,655.15 132.31,653.18 135.75,651.57C139.19,649.96 142.00,648.27 142.00,647.82C142.00,647.37 135.36,646.99 127.25,646.98C119.14,646.97 109.35,646.51 105.50,645.95C101.65,645.39 96.78,644.48 94.69,643.91C92.50,643.33 91.03,642.38 91.25,641.69C91.47,641.04 93.96,638.76 96.80,636.62C99.64,634.49 101.76,632.41 101.50,632.00C101.25,631.60 96.42,630.95 90.77,630.57C85.12,630.18 76.60,628.97 71.83,627.87C66.64,626.67 62.94,625.29 62.61,624.41C62.30,623.61 62.97,622.03 64.10,620.90C65.24,619.76 68.94,617.53 72.33,615.92C75.73,614.31 80.18,613.00 82.25,613.00C84.31,613.00 86.00,613.27 86.00,613.59C86.00,613.91 84.99,615.02 83.75,616.06C81.60,617.85 81.58,617.94 83.50,617.98C84.60,618.00 93.15,618.90 102.50,619.96C111.85,621.03 121.86,622.41 124.75,623.03C127.64,623.66 130.00,624.55 130.00,625.02C130.00,625.49 128.20,626.89 125.99,628.13C123.31,629.63 122.31,630.71 122.98,631.38C123.55,631.95 131.75,632.55 141.74,632.76C151.51,632.97 160.96,633.60 162.75,634.15C164.54,634.70 166.00,635.49 166.00,635.91C166.00,636.32 164.14,637.52 161.86,638.58C159.58,639.64 157.76,640.95 157.82,641.50C157.88,642.05 161.44,642.98 165.72,643.58C170.00,644.17 174.62,645.16 176.00,645.77C177.38,646.38 181.65,647.39 185.50,648.01C189.35,648.63 194.41,649.98 196.75,651.01C199.09,652.04 201.00,653.35 201.00,653.92C201.00,654.48 198.64,655.62 195.75,656.44C192.86,657.26 187.57,658.40 184.00,658.96C180.43,659.52 172.78,660.18 167.00,660.42zM299.50,642.83C288.50,642.77 275.23,642.35 270.00,641.89C264.77,641.44 254.20,640.36 246.50,639.50C238.80,638.64 228.22,637.24 223.00,636.39C217.78,635.54 210.80,634.18 207.50,633.37C204.20,632.56 193.18,629.18 183.00,625.85C172.82,622.52 160.53,617.73 155.68,615.19C150.83,612.65 145.09,609.06 142.93,607.21C139.77,604.50 139.00,603.17 139.00,600.40C139.00,597.75 139.96,595.92 143.14,592.47C145.41,590.00 149.89,586.39 153.09,584.44C156.29,582.50 162.07,579.80 165.94,578.45C169.80,577.10 173.93,576.00 175.10,576.00C177.14,576.00 177.17,576.11 175.61,578.25C174.71,579.49 173.70,581.08 173.36,581.79C173.03,582.50 172.95,583.28 173.18,583.52C173.42,583.75 175.32,583.48 177.40,582.90C179.48,582.32 181.40,582.06 181.66,582.32C181.91,582.58 180.70,584.41 178.96,586.39C175.79,590.00 175.79,590.00 179.15,589.96C180.99,589.93 184.30,589.26 186.50,588.47C188.70,587.68 190.93,587.02 191.46,587.02C191.99,587.01 190.22,589.24 187.52,591.98C184.83,594.71 182.92,597.25 183.29,597.62C183.66,597.99 187.91,596.64 192.73,594.63C197.55,592.62 201.80,590.98 202.16,590.99C202.52,590.99 202.56,591.96 202.25,593.14C201.74,595.09 201.99,595.22 205.10,594.63C206.97,594.27 211.54,593.70 215.25,593.36C218.98,593.01 221.98,593.13 221.94,593.62C221.91,594.10 219.43,596.44 216.42,598.81C213.42,601.19 211.20,603.52 211.50,604.00C211.80,604.48 214.62,603.98 217.77,602.88C220.92,601.78 226.54,600.62 230.25,600.30C235.00,599.88 237.00,600.05 237.00,600.85C237.00,601.48 236.66,602.02 236.25,602.04C235.84,602.06 233.26,604.05 230.51,606.47C227.77,608.89 225.79,611.13 226.12,611.45C226.44,611.78 231.61,610.51 237.60,608.64C243.60,606.77 249.96,604.92 251.75,604.54C253.54,604.16 255.00,604.24 255.00,604.72C255.00,605.20 254.44,606.18 253.75,606.89C252.73,607.94 253.92,608.05 260.17,607.48C264.39,607.09 268.34,607.09 268.97,607.48C269.80,607.99 269.78,608.55 268.91,609.61C268.25,610.40 267.94,611.28 268.22,611.56C268.51,611.84 270.88,611.59 273.50,611.00C276.12,610.41 278.41,610.08 278.59,610.25C278.76,610.43 276.61,612.93 273.81,615.81C271.01,618.69 268.89,621.20 269.11,621.38C269.32,621.57 272.43,621.07 276.00,620.28C279.57,619.49 286.44,616.99 291.25,614.72C299.33,610.91 300.29,610.67 303.75,611.70C305.81,612.31 312.00,614.16 317.50,615.81C326.85,618.62 327.32,618.88 324.75,619.88C323.24,620.47 322.00,621.38 322.00,621.90C322.00,622.42 323.56,623.36 325.46,623.99C327.37,624.62 332.62,626.01 337.14,627.09C341.66,628.17 345.96,629.55 346.68,630.15C347.41,630.75 348.00,631.88 348.00,632.65C348.00,633.42 346.76,634.52 345.25,635.10C343.74,635.68 337.55,636.79 331.50,637.57C325.45,638.35 319.43,639.23 318.13,639.54C315.85,640.08 315.83,640.16 317.63,641.52C319.26,642.76 316.96,642.92 299.50,642.83zM579.50,623.00C588.84,623.00 596.00,622.60 596.00,622.08C596.00,621.58 593.73,620.68 590.95,620.08C588.17,619.49 582.75,619.00 578.89,619.00C575.04,619.00 569.89,619.50 567.44,620.12C565.00,620.73 563.00,621.63 563.00,622.12C563.00,622.60 570.42,623.00 579.50,623.00zM630.45,547.88C633.26,547.95 634.99,547.63 634.45,547.14C633.93,546.67 628.33,544.12 622.00,541.47C615.11,538.58 608.41,536.47 605.29,536.21C602.42,535.96 599.27,536.07 598.29,536.46C596.79,537.05 597.06,537.46 600.00,539.04C601.92,540.07 607.55,542.25 612.50,543.89C617.45,545.53 622.40,547.07 623.50,547.32C624.60,547.57 627.73,547.82 630.45,547.88zM204.19,544.99C202.92,545.00 202.14,544.58 202.46,544.06C202.78,543.54 209.45,538.81 217.27,533.53C225.10,528.26 237.35,519.89 244.50,514.94C251.65,509.99 260.20,504.65 263.50,503.08C266.80,501.50 270.58,499.89 271.90,499.49C274.30,498.77 274.30,498.77 271.99,502.14C270.72,503.99 268.09,507.19 266.14,509.25C264.19,511.31 263.17,513.00 263.88,513.00C264.59,513.00 268.07,512.23 271.62,511.28C276.83,509.89 278.45,509.80 280.04,510.79C281.34,511.61 283.85,511.80 287.50,511.37C290.87,510.97 293.00,511.10 293.00,511.71C293.00,512.25 292.21,513.36 291.25,514.19C290.29,515.01 287.02,517.08 284.00,518.77C280.98,520.46 273.30,523.86 266.94,526.31C260.59,528.77 248.21,533.06 239.44,535.85C230.67,538.64 219.68,541.84 215.00,542.96C210.32,544.07 205.46,544.99 204.19,544.99zM375.25,512.00C372.36,512.00 370.00,511.85 370.00,511.67C370.00,511.50 372.47,509.58 375.48,507.42C378.49,505.27 380.97,503.10 380.98,502.62C380.99,502.13 379.09,502.02 376.75,502.37C374.41,502.73 368.72,503.47 364.11,504.03C359.50,504.59 355.45,504.78 355.11,504.44C354.77,504.10 355.62,502.92 357.00,501.83C358.38,500.74 366.02,496.04 374.00,491.38C381.98,486.72 392.72,480.90 397.87,478.45C403.03,476.00 407.65,474.00 408.14,474.00C408.64,474.00 408.84,475.12 408.59,476.50C408.21,478.55 408.53,479.00 410.35,479.00C411.56,479.00 416.81,476.41 422.02,473.25C428.03,469.59 431.95,466.50 432.79,464.75C433.82,462.61 434.81,462.00 437.26,462.00C438.99,462.00 446.95,463.37 454.95,465.04C462.95,466.72 472.88,469.01 477.00,470.13C481.12,471.25 487.31,473.50 490.75,475.13C494.19,476.77 497.00,478.57 497.00,479.15C497.00,479.86 490.61,479.97 476.71,479.47C465.55,479.07 454.97,479.07 453.21,479.45C451.38,479.86 450.00,480.79 450.00,481.62C450.00,482.42 452.25,484.48 455.00,486.19C457.75,487.90 460.00,489.92 460.00,490.68C460.00,491.44 459.44,492.27 458.75,492.53C458.06,492.79 452.71,493.85 446.86,494.90C441.01,495.95 435.16,497.49 433.86,498.33C432.56,499.16 427.50,501.49 422.62,503.50C415.54,506.41 410.36,507.65 397.12,509.57C387.98,510.90 378.14,511.99 375.25,512.00zM109.68,509.88C110.33,509.95 111.56,509.29 112.43,508.43C113.29,507.56 114.00,506.23 114.00,505.46C114.00,504.70 113.13,503.60 112.07,503.04C111.00,502.47 109.03,502.00 107.69,502.00C106.34,502.00 104.78,502.56 104.22,503.25C103.65,503.94 103.03,505.39 102.85,506.47C102.58,507.96 103.22,508.60 105.50,509.10C107.15,509.46 109.03,509.82 109.68,509.88zM113.00,498.89C113.83,498.87 116.08,498.28 118.00,497.58C119.92,496.89 121.50,495.78 121.50,495.11C121.50,494.44 119.86,492.95 117.85,491.81C114.20,489.72 114.20,489.72 111.10,491.93C109.40,493.14 108.00,494.62 108.00,495.21C108.00,495.80 108.79,496.88 109.75,497.61C110.71,498.34 112.17,498.92 113.00,498.89zM662.80,497.90C662.96,497.96 664.54,497.23 666.30,496.30C669.50,494.60 669.50,494.60 664.50,493.82C661.75,493.39 658.90,493.26 658.17,493.52C657.43,493.78 657.02,494.55 657.24,495.22C657.46,495.89 658.74,496.75 660.07,497.12C661.41,497.50 662.63,497.85 662.80,497.90zM165.08,486.98C166.50,486.99 167.96,486.71 168.32,486.35C168.68,485.99 168.19,485.11 167.23,484.38C166.28,483.66 164.51,483.05 163.31,483.03C162.10,483.01 160.81,483.50 160.43,484.11C160.05,484.72 160.36,485.62 161.12,486.10C161.88,486.58 163.66,486.98 165.08,486.98zM93.19,483.00C94.19,483.00 95.00,482.43 95.00,481.72C95.00,481.02 94.05,479.63 92.88,478.63C90.91,476.94 90.64,476.93 89.13,478.47C87.62,480.00 87.65,480.23 89.44,481.56C90.51,482.35 92.20,483.00 93.19,483.00zM306.37,463.96C307.73,463.99 308.10,463.48 307.73,462.06C307.44,460.95 307.92,459.52 308.86,458.73C309.76,457.97 312.39,456.81 314.71,456.14C317.02,455.48 319.24,454.42 319.64,453.78C320.03,453.14 319.94,452.47 319.43,452.29C318.92,452.11 317.82,451.54 317.00,451.02C315.67,450.18 315.67,449.91 317.00,448.58C317.82,447.76 321.43,446.72 325.00,446.27C331.25,445.49 331.49,445.35 331.23,442.81C331.02,440.84 331.72,439.63 333.98,438.02C335.64,436.83 337.00,435.48 337.00,435.01C337.00,434.54 335.54,433.84 333.75,433.45C331.97,433.05 329.05,432.04 327.28,431.19C324.29,429.77 323.89,429.79 322.02,431.48C320.91,432.49 320.00,433.79 320.00,434.37C320.00,434.95 318.11,437.35 315.79,439.71C312.61,442.96 310.82,444.00 308.45,444.00C306.57,444.00 304.58,444.81 303.49,446.01C301.72,447.96 301.74,448.09 303.94,450.44C305.21,451.79 305.89,453.37 305.48,454.03C305.08,454.67 303.24,455.84 301.38,456.62C299.52,457.39 298.00,458.72 298.00,459.56C298.00,460.41 299.46,461.73 301.25,462.51C303.04,463.29 305.34,463.94 306.37,463.96zM558.00,463.42C558.83,463.27 560.51,463.12 561.75,463.08C562.99,463.03 564.00,462.56 564.00,462.03C564.00,461.49 562.70,460.38 561.12,459.56C559.54,458.74 557.97,457.36 557.64,456.49C557.19,455.33 558.26,454.39 561.77,452.88C566.23,450.96 566.39,450.77 564.56,449.42C563.49,448.64 562.32,448.00 561.96,448.00C561.60,448.00 560.84,446.99 560.26,445.75C559.40,443.89 559.65,443.04 561.71,440.85C564.19,438.19 564.19,438.19 562.03,436.03C560.25,434.25 559.60,434.09 558.35,435.12C557.42,435.89 557.03,437.36 557.33,438.94C557.71,440.92 557.10,442.11 554.66,444.17C551.86,446.54 551.64,447.08 552.76,448.92C553.77,450.58 553.77,451.40 552.77,453.00C552.08,454.10 551.01,455.00 550.38,455.00C549.76,455.00 548.68,455.68 547.98,456.52C546.95,457.76 547.05,458.40 548.53,460.03C549.52,461.13 551.72,462.40 553.42,462.86C555.11,463.32 557.17,463.57 558.00,463.42zM607.06,452.92C610.43,452.97 613.38,452.44 614.56,451.57C615.98,450.52 616.21,449.84 615.39,449.01C614.78,448.39 611.82,447.63 608.81,447.32C605.48,446.98 602.48,447.21 601.16,447.91C599.97,448.55 599.00,449.69 599.00,450.45C599.00,451.21 599.56,452.06 600.25,452.34C600.94,452.62 604.00,452.88 607.06,452.92zM447.89,448.76C454.44,448.99 456.14,448.71 458.12,447.08C460.50,445.13 460.50,445.13 456.39,444.46C454.13,444.09 451.70,443.43 450.99,442.99C450.00,442.38 450.22,441.54 451.95,439.35C454.20,436.50 454.20,436.50 451.41,436.17C449.87,435.98 446.68,436.12 444.31,436.48C440.37,437.07 440.00,437.37 440.00,440.03C440.00,441.91 439.30,443.31 438.00,444.00C436.90,444.59 436.00,445.52 436.00,446.07C436.00,446.62 436.91,447.39 438.02,447.78C439.13,448.18 443.57,448.62 447.89,448.76zM329.32,420.98C329.76,420.99 331.00,420.53 332.07,419.96C333.13,419.40 334.00,418.27 334.00,417.46C334.00,416.60 333.05,416.00 331.69,416.00C330.42,416.00 328.51,416.67 327.44,417.48C325.76,418.76 325.70,419.10 327.00,419.97C327.82,420.52 328.87,420.98 329.32,420.98zM443.62,417.59C444.79,417.30 446.82,416.84 448.12,416.58C449.43,416.31 452.19,415.82 454.25,415.50C456.63,415.13 458.00,414.37 458.00,413.43C458.00,412.62 456.91,411.54 455.58,411.03C454.25,410.52 452.79,409.48 452.33,408.70C451.87,407.93 450.52,406.78 449.32,406.15C448.11,405.52 446.20,405.00 445.07,405.00C443.46,405.00 443.00,405.64 443.00,407.88C443.00,409.92 442.42,410.92 441.01,411.29C439.91,411.58 438.71,412.59 438.34,413.55C437.91,414.67 438.35,415.79 439.59,416.70C440.64,417.48 442.46,417.88 443.62,417.59zM326.23,407.00C327.83,407.00 329.99,406.54 331.04,405.98C332.10,405.41 333.99,403.92 335.26,402.65C336.53,401.38 338.45,399.81 339.53,399.17C341.49,398.01 341.49,397.99 339.50,396.44C338.12,395.36 336.58,395.09 334.50,395.58C332.85,395.96 329.83,396.21 327.79,396.12C324.56,395.98 323.86,396.37 322.44,399.11C321.08,401.75 321.02,402.67 322.07,404.64C322.96,406.29 324.21,407.00 326.23,407.00zM381.55,399.00C382.83,399.00 384.10,398.64 384.38,398.20C384.65,397.76 384.48,396.78 384.01,396.01C383.48,395.15 383.72,393.51 384.65,391.72C385.47,390.12 385.90,388.19 385.60,387.41C385.31,386.63 384.41,386.00 383.61,386.00C382.81,386.00 380.88,387.03 379.33,388.29C377.77,389.55 375.26,391.11 373.75,391.77C372.24,392.42 371.00,393.40 371.00,393.93C371.00,394.47 372.61,395.21 374.58,395.58C376.55,395.95 378.40,396.87 378.69,397.63C378.98,398.38 380.26,399.00 381.55,399.00zM453.79,398.65C455.74,398.33 457.74,397.66 458.25,397.15C458.82,396.58 456.59,394.38 452.51,391.47C446.68,387.31 445.67,386.90 444.40,388.18C443.12,389.45 443.39,390.23 446.60,394.43C450.02,398.90 450.49,399.18 453.79,398.65zM402.75,381.92C404.54,381.96 406.00,381.57 406.00,381.04C406.00,380.50 405.13,379.60 404.07,379.04C403.00,378.47 400.98,378.00 399.57,378.00C398.02,378.00 397.00,378.56 397.00,379.42C397.00,380.20 397.56,381.06 398.25,381.34C398.94,381.62 400.96,381.88 402.75,381.92zM698.87,364.95C697.57,364.93 694.50,364.21 692.06,363.35C689.62,362.50 686.47,361.06 685.06,360.15C683.65,359.25 680.25,356.83 677.50,354.76C674.75,352.70 667.38,348.97 661.13,346.46C654.88,343.96 649.51,342.16 649.20,342.47C648.89,342.78 649.17,343.57 649.82,344.22C650.47,344.87 651.00,345.80 651.00,346.28C651.00,346.76 649.54,346.84 647.75,346.46C645.96,346.07 642.02,344.51 638.99,342.98C635.96,341.46 630.79,338.18 627.49,335.69C624.20,333.19 619.63,329.21 617.35,326.83C615.06,324.45 609.16,316.43 604.23,309.00C599.30,301.57 594.30,293.59 593.11,291.25C591.80,288.65 591.40,287.00 592.10,287.00C592.73,287.00 596.12,289.05 599.63,291.56C603.14,294.06 609.97,299.80 614.80,304.31C619.63,308.81 627.61,315.25 632.54,318.61C637.47,321.98 642.99,325.49 644.81,326.42C646.64,327.35 652.71,331.82 658.31,336.35C663.92,340.88 673.00,346.98 678.50,349.91C684.00,352.84 690.82,356.77 693.66,358.65C696.49,360.53 699.36,362.73 700.03,363.54C701.04,364.75 700.84,364.99 698.87,364.95zM716.96,360.97C716.16,360.95 712.25,359.65 708.27,358.08C704.30,356.51 700.01,354.97 698.75,354.65C697.49,354.34 691.52,351.09 685.48,347.43C679.44,343.78 673.93,340.32 673.23,339.75C672.53,339.18 672.15,338.52 672.39,338.27C672.64,338.03 677.82,339.94 683.92,342.51C690.01,345.08 699.61,349.65 705.25,352.66C710.89,355.67 716.16,358.78 716.96,359.57C718.25,360.83 718.25,361.00 716.96,360.97zM76.49,357.00C75.67,357.00 75.00,356.58 75.00,356.07C75.00,355.56 80.32,350.26 86.82,344.29C93.32,338.33 101.39,331.37 104.75,328.85C109.04,325.62 112.24,324.04 115.45,323.56C118.68,323.08 121.30,321.77 124.37,319.12C126.75,317.05 134.61,311.63 141.83,307.07C149.05,302.51 158.22,295.97 162.23,292.52C166.23,289.08 179.62,276.42 191.99,264.39C207.73,249.08 214.57,243.02 214.80,244.21C214.98,245.14 213.41,250.09 211.31,255.20C207.94,263.42 207.50,265.47 207.50,272.84C207.50,280.69 207.66,281.31 210.25,283.54C212.29,285.29 213.00,286.82 213.00,289.45C213.00,291.40 213.34,293.00 213.77,293.00C214.19,293.00 217.22,290.33 220.52,287.07C224.84,282.78 226.72,280.09 227.31,277.32C227.75,275.22 228.36,272.10 228.65,270.39C229.01,268.28 228.46,265.87 226.92,262.89C225.29,259.73 224.53,256.19 224.20,250.25C223.95,245.71 224.05,242.00 224.41,242.00C224.77,242.00 227.41,243.18 230.28,244.62C233.15,246.05 238.76,249.54 242.73,252.37C246.71,255.19 249.97,257.84 249.98,258.25C249.99,258.66 249.55,259.00 249.00,259.00C248.45,259.00 245.87,257.48 243.25,255.62C240.64,253.77 237.00,251.48 235.16,250.55C233.32,249.62 231.59,249.07 231.33,249.34C231.06,249.61 231.33,250.75 231.93,251.87C232.53,252.99 235.26,256.83 237.99,260.40C242.97,266.89 242.97,266.89 240.26,270.19C238.77,272.01 234.84,276.47 231.53,280.11C228.21,283.75 223.29,289.94 220.59,293.86C217.88,297.79 215.92,301.25 216.22,301.55C216.52,301.85 219.70,299.61 223.29,296.57C226.87,293.53 232.44,287.71 235.65,283.64C238.87,279.58 243.92,272.93 246.88,268.87C249.84,264.82 254.23,260.04 256.63,258.26C259.03,256.48 261.00,255.25 261.00,255.53C261.00,255.80 260.57,256.81 260.05,257.76C259.53,258.72 257.91,262.28 256.45,265.68C254.98,269.08 253.97,272.41 254.19,273.08C254.45,273.84 256.01,273.05 258.38,270.97C260.46,269.14 263.86,265.14 265.94,262.07C268.01,259.01 270.48,255.00 271.43,253.16C272.37,251.32 272.89,249.17 272.59,248.37C272.15,247.21 271.59,247.15 269.92,248.04C268.76,248.66 269.99,246.85 272.66,244.03C275.32,241.20 279.52,237.64 282.00,236.12C284.48,234.59 288.04,232.82 289.91,232.17C291.79,231.52 293.46,231.13 293.63,231.30C293.80,231.47 292.46,233.84 290.66,236.56C288.85,239.27 285.11,245.78 282.34,251.00C279.57,256.23 276.74,262.22 276.05,264.32C275.36,266.42 275.03,268.36 275.31,268.64C275.59,268.92 278.82,265.52 282.50,261.08C286.17,256.63 289.59,253.00 290.09,253.00C290.59,253.00 291.00,254.35 291.00,256.00C291.00,257.65 291.37,259.00 291.83,259.00C292.28,259.00 293.58,257.99 294.71,256.75C295.85,255.51 300.41,248.39 304.86,240.92C309.30,233.45 316.94,222.11 321.84,215.71C326.74,209.31 332.21,201.79 334.00,199.00C335.79,196.21 337.00,193.67 336.69,193.35C336.37,193.04 333.95,194.71 331.31,197.07C328.66,199.43 320.77,207.24 313.76,214.43C306.75,221.62 301.02,227.11 301.01,226.63C301.00,226.15 302.24,224.31 303.75,222.54C305.26,220.76 308.52,216.46 311.00,212.98C313.48,209.50 318.79,204.03 322.82,200.82C326.85,197.62 340.12,184.89 352.32,172.55C364.52,160.21 375.11,149.97 375.86,149.80C376.66,149.63 377.39,150.54 377.62,152.00C377.84,153.38 380.64,158.32 383.86,163.00C387.07,167.68 392.07,175.32 394.97,180.00C397.87,184.68 403.84,195.03 408.22,203.00C412.60,210.97 418.19,220.20 420.63,223.50C423.07,226.80 427.31,232.19 430.05,235.47C432.79,238.76 436.78,244.39 438.92,247.98C441.05,251.57 443.80,255.40 445.02,256.50C447.25,258.50 447.25,258.50 446.50,255.02C446.08,253.11 444.23,247.97 442.39,243.60C440.55,239.24 437.85,233.87 436.40,231.67C434.95,229.47 432.46,225.48 430.88,222.79C429.30,220.11 428.00,217.66 428.00,217.35C428.00,217.04 428.74,217.07 429.63,217.41C431.03,217.95 431.19,217.45 430.72,213.97C430.42,211.74 428.57,206.53 426.61,202.40C423.98,196.85 420.50,192.11 413.27,184.23C407.90,178.36 400.57,170.40 396.99,166.53C393.42,162.66 389.37,158.17 387.99,156.54C386.53,154.80 387.97,155.68 391.50,158.68C394.80,161.48 404.93,171.36 414.00,180.64C423.08,189.91 433.33,200.93 436.79,205.13C440.24,209.33 445.87,214.94 449.29,217.60C452.70,220.26 459.01,225.50 463.30,229.26C467.59,233.01 473.83,238.09 477.16,240.54C480.49,242.99 485.96,246.46 489.32,248.25C493.06,250.25 499.88,255.75 506.97,262.50C513.32,268.55 521.32,276.12 524.76,279.32C529.78,284.00 531.43,285.01 533.25,284.48C534.49,284.11 540.67,281.42 547.00,278.49C553.33,275.55 559.70,272.85 561.17,272.49C563.80,271.83 563.83,271.88 563.58,276.66C563.43,279.32 562.30,283.52 561.05,286.00C559.80,288.48 557.02,292.79 554.89,295.59C552.75,298.39 551.00,301.20 551.00,301.82C551.00,302.45 552.24,303.27 553.75,303.65C555.26,304.02 559.20,305.61 562.50,307.17C565.80,308.72 569.30,310.00 570.27,310.00C571.65,310.00 571.90,309.46 571.42,307.55C570.97,305.74 571.66,303.91 574.03,300.61C576.93,296.57 577.18,295.67 576.56,291.53C576.18,288.99 574.99,284.35 573.91,281.21C572.83,278.07 570.95,274.72 569.73,273.77C567.99,272.43 567.86,272.04 569.12,272.02C570.00,272.01 571.93,272.95 573.40,274.10C574.88,275.26 578.24,279.42 580.89,283.35C583.54,287.28 589.57,297.48 594.30,306.00C599.02,314.52 603.21,322.35 603.61,323.40C604.24,325.07 603.98,325.22 601.41,324.62C599.81,324.24 596.54,323.66 594.14,323.33C590.01,322.75 589.83,322.82 590.85,324.71C591.44,325.81 595.65,330.00 600.21,334.01C604.77,338.03 609.75,342.61 611.28,344.20C612.81,345.80 613.79,347.54 613.45,348.08C613.11,348.64 611.25,348.78 609.17,348.41C607.15,348.05 602.35,346.31 598.50,344.55C594.65,342.79 587.45,338.86 582.50,335.83C577.55,332.79 567.42,326.58 560.00,322.01C552.58,317.45 544.92,312.54 543.00,311.11C541.08,309.68 536.12,305.64 532.00,302.13C527.88,298.63 520.08,291.43 514.68,286.13C505.71,277.34 504.37,275.51 499.32,265.23C496.27,259.03 492.82,253.29 491.65,252.46C490.26,251.50 489.38,251.35 489.15,252.04C488.95,252.64 489.31,255.17 489.94,257.68C490.57,260.19 490.88,262.45 490.63,262.71C490.37,262.96 487.72,261.60 484.73,259.69C480.42,256.93 477.87,254.07 472.40,245.86C468.60,240.16 462.73,232.64 459.34,229.14C455.96,225.63 452.58,222.97 451.84,223.21C451.11,223.46 450.37,224.54 450.21,225.61C450.03,226.80 456.54,237.53 466.86,253.03C476.17,267.04 487.38,282.81 491.76,288.07C496.14,293.34 503.95,301.34 509.11,305.86C514.28,310.38 521.76,317.73 525.75,322.18C529.74,326.64 533.00,330.93 533.00,331.72C533.00,332.82 532.24,332.99 529.75,332.45C527.96,332.06 520.88,329.53 514.00,326.84C507.12,324.14 499.87,320.85 497.87,319.53C495.87,318.21 490.34,312.66 485.56,307.19C480.79,301.72 470.60,291.45 462.91,284.37C455.22,277.29 446.45,269.42 443.43,266.88C440.40,264.34 434.23,259.99 429.72,257.20C425.20,254.42 420.33,251.02 418.89,249.66C417.46,248.30 414.68,245.23 412.73,242.84C410.78,240.45 405.49,231.75 400.97,223.50C396.46,215.25 389.79,204.07 386.16,198.66C382.53,193.25 378.07,187.51 376.24,185.91C374.42,184.31 372.31,183.00 371.55,183.00C370.79,183.00 369.98,183.56 369.75,184.25C369.52,184.94 370.11,187.97 371.05,191.00C371.99,194.02 374.82,201.35 377.33,207.27C379.84,213.20 383.08,221.46 384.52,225.65C386.21,230.53 386.80,233.60 386.18,234.22C385.56,234.84 383.23,232.50 379.67,227.69C376.63,223.57 372.51,218.58 370.53,216.60C368.55,214.62 366.05,213.00 364.97,213.00C363.87,213.00 363.00,213.68 363.00,214.53C363.00,215.37 364.40,218.86 366.12,222.28C367.84,225.70 371.59,232.10 374.46,236.50C377.34,240.90 383.92,249.22 389.08,255.00C394.25,260.77 402.57,269.77 407.57,275.00C412.56,280.23 417.63,285.80 418.83,287.38C420.02,288.97 421.00,291.11 421.00,292.13C421.00,293.16 420.31,294.00 419.47,294.00C418.62,294.00 415.59,292.81 412.72,291.37C409.85,289.92 405.48,287.35 403.00,285.66C400.52,283.97 387.76,271.88 374.63,258.79C358.33,242.55 350.08,235.00 348.61,235.00C347.43,235.00 339.27,240.21 330.48,246.58C321.69,252.95 310.90,260.56 306.50,263.50C299.13,268.42 297.52,269.04 286.08,271.41C274.71,273.76 273.18,274.35 268.08,278.33C265.01,280.72 257.10,286.28 250.50,290.69C243.90,295.09 232.83,301.90 225.91,305.82C218.98,309.73 208.27,315.22 202.11,318.00C195.95,320.78 188.37,323.71 185.28,324.52C182.18,325.32 179.43,325.77 179.17,325.51C178.91,325.24 180.69,322.89 183.13,320.27C185.57,317.64 188.83,313.83 190.37,311.78C191.92,309.74 193.03,307.58 192.83,307.00C192.64,306.41 188.49,308.65 183.61,311.98C178.74,315.31 171.99,320.23 168.62,322.92C165.26,325.60 161.38,329.02 160.00,330.52C158.62,332.01 154.35,335.35 150.50,337.94C146.65,340.53 139.45,344.91 134.50,347.67C129.55,350.43 123.40,353.48 120.82,354.45C118.25,355.42 115.62,356.04 114.97,355.82C114.32,355.61 116.66,352.74 120.18,349.46C123.69,346.18 130.85,340.26 136.07,336.31C141.30,332.36 149.38,325.95 154.04,322.08C158.69,318.21 166.03,313.15 170.33,310.82C174.64,308.50 180.17,304.84 182.62,302.69C185.07,300.53 187.74,297.47 188.56,295.89C189.89,293.31 189.89,293.00 188.53,293.00C187.69,293.00 187.00,292.56 187.00,292.02C187.00,291.48 188.52,288.67 190.37,285.77C192.22,282.87 195.84,276.30 198.42,271.17C201.23,265.56 202.56,261.97 201.74,262.17C200.98,262.35 194.19,269.21 186.64,277.41C179.09,285.61 171.02,293.97 168.71,295.99C166.39,298.01 162.03,301.24 159.00,303.17C155.97,305.09 150.93,309.02 147.79,311.90C144.66,314.77 138.47,321.88 134.04,327.69C129.61,333.51 124.06,339.76 121.71,341.60C119.35,343.44 115.47,345.63 113.08,346.47C110.70,347.31 107.91,348.00 106.87,348.00C105.84,348.00 105.00,347.73 105.00,347.40C105.00,347.07 107.71,343.21 111.02,338.81C114.33,334.42 117.74,329.47 118.59,327.82C119.45,326.17 119.89,324.56 119.58,324.25C119.27,323.93 118.04,324.54 116.85,325.59C115.67,326.64 112.71,330.20 110.29,333.50C107.86,336.80 103.62,341.83 100.86,344.68C96.85,348.81 94.04,350.58 86.91,353.43C82.00,355.39 77.31,357.00 76.49,357.00zM57.52,351.00C57.23,351.00 57.00,350.80 57.00,350.55C57.00,350.30 61.39,347.53 66.75,344.39C72.11,341.25 78.18,337.63 80.23,336.34C82.28,335.05 84.27,334.00 84.65,334.00C85.04,334.00 82.68,336.07 79.42,338.61C76.17,341.14 70.02,344.97 65.77,347.11C61.52,349.25 57.81,351.00 57.52,351.00zM466.29,321.94C465.85,321.91 461.86,320.67 457.42,319.19C452.47,317.54 447.18,314.87 443.77,312.29C439.64,309.18 437.75,306.90 436.45,303.52C435.50,301.01 434.97,298.70 435.28,298.38C435.60,298.07 440.34,300.57 445.83,303.94C451.31,307.31 457.88,311.90 460.42,314.14C462.96,316.37 465.50,319.06 466.05,320.10C466.61,321.15 466.72,321.97 466.29,321.94zM296.61,306.00C295.00,306.00 295.02,305.78 296.83,303.25C297.91,301.74 301.65,297.78 305.15,294.46C308.64,291.13 312.97,287.39 314.76,286.13C316.55,284.88 324.53,276.04 332.49,266.50C340.45,256.95 347.47,248.83 348.09,248.44C348.71,248.06 349.61,248.36 350.07,249.12C350.54,249.87 352.17,254.32 353.69,258.99C355.21,263.67 356.42,269.52 356.39,272.00C356.35,274.95 355.27,278.58 353.26,282.54C351.57,285.86 348.17,290.43 345.71,292.70C343.24,294.97 339.34,298.02 337.04,299.47C334.74,300.93 332.27,301.98 331.57,301.81C330.69,301.60 332.15,297.57 336.18,289.08C339.43,282.26 341.85,276.05 341.56,275.29C341.18,274.29 340.54,274.18 339.26,274.89C338.29,275.43 332.45,280.83 326.29,286.89C316.87,296.14 313.73,298.56 306.71,301.95C302.12,304.18 297.57,306.00 296.61,306.00zM389.86,303.84C389.66,304.39 387.60,303.71 385.28,302.34C381.35,300.01 380.92,299.94 378.81,301.42C377.57,302.29 375.83,303.00 374.94,303.00C374.05,303.00 372.78,301.82 372.12,300.37C371.46,298.92 370.65,291.94 370.31,284.87C369.97,277.79 369.96,272.00 370.30,272.00C370.63,272.00 373.80,276.16 377.34,281.25C380.88,286.34 385.23,293.28 387.00,296.67C388.77,300.06 390.06,303.29 389.86,303.84zM431.29,274.90C430.85,274.84 428.48,273.68 426.00,272.32C423.52,270.96 420.22,268.64 418.65,267.17C417.08,265.70 414.57,262.70 413.06,260.50C411.55,258.30 409.82,255.04 409.21,253.25C408.60,251.46 408.44,250.00 408.86,250.00C409.27,250.00 412.54,252.42 416.13,255.38C419.72,258.34 424.24,262.95 426.19,265.63C428.13,268.31 430.25,271.51 430.90,272.75C431.54,273.99 431.72,274.95 431.29,274.90zM334.75,237.00C335.16,236.99 337.06,236.04 338.97,234.88C340.88,233.71 344.93,230.22 347.97,227.11C351.01,224.00 354.24,219.66 355.15,217.48C356.05,215.29 358.84,207.26 361.35,199.64C365.67,186.50 365.80,185.76 363.95,185.28C362.88,185.00 362.00,184.19 362.00,183.48C362.00,182.78 363.75,178.39 365.89,173.74C368.03,169.09 370.09,163.87 370.47,162.14C370.87,160.33 370.75,159.00 370.21,159.00C369.68,159.00 363.41,165.01 356.28,172.36C349.14,179.71 343.06,186.65 342.77,187.78C342.47,188.91 342.77,190.88 343.42,192.17C344.08,193.45 345.27,194.44 346.06,194.37C346.85,194.30 348.75,193.91 350.28,193.50C353.06,192.77 353.06,192.77 351.09,197.63C350.00,200.31 345.71,209.18 341.56,217.34C337.40,225.50 334.00,233.27 334.00,234.59C334.00,235.92 334.34,237.00 334.75,237.00z" />

</svg>
